<?xml version="1.0" encoding="utf-8"?>
<!-- Generator: Adobe Illustrator 28.0.0, SVG Export Plug-In . SVG Version: 6.00 Build 0)  -->
<svg version="1.1" id="Capa_1" xmlns="http://www.w3.org/2000/svg" xmlns:xlink="http://www.w3.org/1999/xlink" x="0px" y="0px"
	 viewBox="0 0 1080 1080" style="enable-background:new 0 0 1080 1080;" xml:space="preserve">
<style type="text/css">
	.st0{fill:#FFFFFF;}
</style>
<g>
	<path class="st0" d="M658.8,548.85c21.11,11.29,25.69,39.57,9.22,56.95l-82.76,87.3c-14.52,15.32-39.01,15.05-53.19-0.58l-6.9-7.65
		c-13.64-15.13-17.04-36.9-8.66-55.47l8.65-19.18l-19.99,12.58c-13.68,8.61-31.5,6.56-42.88-4.92l-6.21-6.27
		c-14.33-14.47-6.64-33.72,4.46-50.8l11.7-13.65c-39.26,21.46-74.61-4.15-74.61-4.15c15.6,78.03-81.68,4.39-81.68,4.39
		c79.04,270.44-208.7,472.46-222.36,481.86C473.53,768.31,545.64,863.8,545.64,863.8c-35.11-66.32-5.85-98.51-5.85-98.51
		c0,26.33,9.75,49.74,9.75,49.74c61.44-2.93,139.47,140.45,139.47,140.45c-90.7-173.61-48.77-197.01-48.77-197.01l-42.91-25.36
		c80.95-7.8,94.61,30.23,94.61,30.23c-20.48-126.79,94.61-118.01,94.61-118.01c-63.4-41.94-52.67-68.27-52.67-68.27
		c2.93,9.75,41.94,27.31,41.94,27.31C781.66,563.41,986.48,540,986.48,540h-0.07c0,0-204.82-23.41-210.67-64.37
		c0,0-39.01,17.56-41.94,27.31c0,0-10.73-26.33,52.67-68.27c0,0-115.09,8.78-94.61-118.01c0,0-13.65,38.04-94.61,30.23l42.91-25.36
		c0,0-41.94-23.41,48.77-197.01c0,0-78.02,143.37-139.47,140.45c0,0-9.75,23.41-9.75,49.74c0,0-29.26-32.19,5.85-98.51
		c0,0-72.11,95.49-452.04-165.46c13.66,9.41,301.39,211.43,222.36,481.86c0,0,97.29-73.64,81.68,4.39c0,0,35.35-25.6,74.61-4.15
		l-11.7-13.65c-11.1-17.08-18.79-36.33-4.46-50.8l6.21-6.27c11.37-11.48,29.2-13.53,42.88-4.92l19.99,12.58l-8.65-19.18
		c-8.37-18.57-4.98-40.33,8.66-55.47l6.9-7.65c14.18-15.63,38.67-15.9,53.19-0.58l82.76,87.3c16.47,17.37,11.89,45.66-9.22,56.95
		l-49.78,7.79L658.8,548.85z M509.62,372.24l-46.11,47.52c-17.05,17.57-42.76,23.64-65.87,15.53v0
		c-10.6-3.72-18.03-13.27-19.16-24.45C365.12,278.28,299,218.42,299,218.42l205.27,116.43C517.86,342.56,520.5,361.03,509.62,372.24
		z M504.34,745.15L299.07,861.58c0,0,66.12-59.87,79.48-192.43c1.13-11.18,8.56-20.73,19.16-24.45v0
		c23.11-8.11,48.82-2.05,65.87,15.53l46.11,47.52C520.58,718.97,517.93,737.44,504.34,745.15z"/>
</g>
</svg>
